PathFileType	4	(X/Y/Z)	C:\Users\86182\Documents\cortex\Trimmed_M3_L6.trc
DataRate	CameraRate	NumFrames	NumMarkers	Units	OrigDataRate	OrigDataStartFrame	OrigNumFrames
100.00	100.00	       56	2	mm	100.00	721	       901
Frame#	Time	gripper			box			
		X1	Y1	Z1	X2	Y2	Z2	

721	7.200	273.43097	149.82083	292.85147	273.79611	149.53461	146.65509	
722	7.210	273.45920	149.81651	292.83926	273.77374	149.52113	146.65762	
723	7.220	273.45892	149.81943	292.83508	273.78772	149.53865	146.65652	
724	7.230	273.47052	149.81477	292.83435	273.77655	149.53192	146.65779	
725	7.240	273.43790	149.82051	292.84738	273.79877	149.54530	146.65529	
726	7.250	273.44769	149.82115	292.83994	273.81137	149.53928	146.65314	
727	7.260	273.46155	149.81537	292.83942	273.79745	149.52188	146.65424	
728	7.270	273.45023	149.81711	292.84430	273.78625	149.51514	146.65549	
729	7.280	273.47000	149.81512	292.83417	273.78207	149.51714	146.65620	
730	7.290	273.45340	149.81932	292.83890	273.77585	149.52013	146.65726	
731	7.300	273.43225	149.82042	292.85126	273.78830	149.51414	146.65515	
732	7.310	273.40836	149.82178	292.86505	273.82016	149.53110	146.65143	
733	7.320	273.45023	149.81575	292.84631	273.78207	149.51714	146.65620	
734	7.330	273.43323	149.81972	292.85165	273.77374	149.52113	146.65762	
735	7.340	273.44678	149.81879	292.84406	273.77747	149.52338	146.65720	
736	7.350	273.43768	149.82230	292.84485	273.78497	149.52788	146.65636	
737	7.360	273.43207	149.82220	292.84869	273.77170	149.52214	146.65796	
738	7.370	273.44455	149.81798	292.84677	273.78375	149.52037	146.65613	
739	7.380	273.40851	149.82715	292.85690	273.77917	149.52664	146.65712	
740	7.390	273.47339	149.81441	292.83298	273.79193	149.53662	146.65579	
741	7.400	273.46918	149.81633	292.83292	273.78751	149.52264	146.65570	
742	7.410	273.46686	149.81744	292.83279	273.77283	149.52968	146.65822	
743	7.420	273.44534	149.81886	292.84491	273.80072	149.52837	146.65410	
744	7.430	273.42166	149.82289	292.85458	273.76956	149.52315	146.65833	
745	7.440	273.37558	149.82738	292.87839	273.77792	149.51913	146.65691	
746	7.450	273.43546	149.82053	292.84897	273.76749	149.52415	146.65868	
747	7.460	273.42041	149.81920	292.86093	273.76535	149.52516	146.65906	
748	7.470	273.39606	149.82539	292.86777	273.78625	149.51514	146.65549	
749	7.480	273.43274	149.82199	292.84857	273.81232	149.53082	146.65254	
750	7.490	273.41296	149.82495	292.85727	273.80490	149.52637	146.65338	
751	7.500	273.48502	149.81332	292.82690	273.79822	149.53360	146.65474	
752	7.510	273.43201	149.82089	292.85074	273.81232	149.53082	146.65254	
753	7.520	273.45572	149.81819	292.83905	273.77283	149.52968	146.65822	
754	7.530	273.42618	149.82353	292.85062	273.77170	149.52214	146.65796	
755	7.540	273.42645	149.82307	292.85114	273.76535	149.52516	146.65906	
756	7.550	273.45572	149.81819	292.83905	273.77780	149.53078	146.65355	
757	7.560	273.43317	149.82356	292.84595	273.77585	149.52013	146.65726	
758	7.570	273.44208	149.82201	292.84235	273.76535	149.52516	146.65906	
759	7.580	273.42148	149.82179	292.85635	273.78751	149.52264	146.65570	
760	7.590	273.44434	149.82185	292.84109	273.77374	149.52113	146.65762	
761	7.600	273.44199	149.81862	292.84750	273.77170	149.52214	146.65796	
762	7.610	273.40942	149.82397	292.86105	273.79657	149.53036	146.65480	
763	7.620	273.44992	149.82100	292.83868	273.76956	149.52315	146.65833	
764	7.630	273.42245	149.81953	292.85907	273.81479	149.52563	146.65192	
765	7.640	273.40393	149.82652	292.86087	273.81021	149.53183	146.65289	
766	7.650	273.44324	149.82240	292.84100	273.77655	149.53192	146.65779	
767	7.660	273.45786	149.81902	292.83640	273.76910	149.52452	146.65714	
768	7.670	273.49130	149.81485	292.82050	273.82773	149.55139	146.65141	
769	7.680	273.47586	149.81587	292.82916	273.81723	149.55643	146.65320	
770	7.690	273.47220	149.81853	292.82764	273.82755	149.56009	146.64656	
771	7.700	273.43771	149.82133	292.84625	273.76703	149.52553	146.65749	
772	7.710	273.43433	149.82109	292.84888	273.79242	149.53236	146.65552	
773	7.720	273.42761	149.82251	292.85123	273.77655	149.53192	146.65779	
774	7.730	273.38159	149.83092	292.86911	273.78772	149.53865	146.65652	
775	7.740	273.42462	149.82628	292.86481	273.82565	149.55240	146.65176	
776	7.750	273.38315	149.82707	292.87384	273.77747	149.52338	146.65720	
